<?xml version="1.0" encoding="utf-8"?>
<!-- Generator: Adobe Illustrator 26.0.1, SVG Export Plug-In . SVG Version: 6.00 Build 0)  -->
<svg version="1.1" id="logo-anime" xmlns="http://www.w3.org/2000/svg" xmlns:xlink="http://www.w3.org/1999/xlink" x="0px"
	y="0px" viewBox="0 0 500 500" style="enable-background:new 0 0 500 500;" xml:space="preserve">
	<style type="text/css">
		.st0 {
			fill: #627B56;
		}

		.st1 {
			fill: none;
			stroke: #E2C87F;
			stroke-width: 19.8425;
			stroke-miterlimit: 10;
		}

		.st2 {
			fill: none;
			stroke: #E2C87F;
			stroke-width: 10.7279;
			stroke-miterlimit: 10;
		}

		.st3 {
			fill: none;
			stroke: #E2C87F;
			stroke-width: 11.3386;
			stroke-miterlimit: 10;
		}

		.st4 {
			fill: none;
			stroke: #E2C87F;
			stroke-width: 11.6657;
			stroke-miterlimit: 10;
		}

		@keyframes fadein {
			0%{
				opacity: 0;
			}
			100% {
				opacity:1;
			}
		}

		#bloom:hover #D_part, 
		#bloom:hover #low-petal,
		#bloom:hover #mid-petal,
		#bloom:hover #big-petal {
			animation-name: fadein;
			animation-fill-mode: both;
		}

		#bloom:hover #D_part {
			animation-delay: 4s;
			animation-duration: 1s;
		}

		#bloom:hover #low-petal {
			animation-delay: 3s;
			animation-duration: 2s;
		}

		#bloom:hover #mid-petal {
			animation-delay: 2s;
			animation-duration: 3s;
		}

		#bloom:hover #big-petal {
			animation-duration: 5s;
		}


	</style>
	<g id="bloom">
		<path id="D_part" class="st0" d="M144.7,103.9v297.6V103.9z M144.7,401.5c98,16.2,193.4-55.9,192.1-148.6
		c2.3-93.7-96.7-164-192.1-149" />
		<circle id="circle" class="st1" cx="250" cy="250" r="186" />
		<path id="low-petal" class="st2" d="M157.5,397.5l-2.3-2.6l22.4-16.3c53.8-39.3,133.1-32.1,177,16.1l2.3,2.6l-22.4,16.3
		C280.6,452.9,201.4,445.7,157.5,397.5z" />
		<path id="mid-petal" class="st3" d="M159.7,397.5l-14.9-3.7l4.8-19.4c18-72.5,91.4-116.6,163.9-98.6l14.9,3.7l-4.8,19.4
		C305.5,371.4,232.1,415.5,159.7,397.5z" />
		<path id="big-petal" class="st4" d="M159.5,386.5l-17.7,17.8L124,386.5c-75-75.4-75-197.6,0-273l17.7-17.8l17.7,17.8
		C234.5,188.9,234.5,311.1,159.5,386.5z" />
	</g>
</svg>