<?xml version="1.0" encoding="utf-8"?>
<!-- Generator: Adobe Illustrator 26.0.1, SVG Export Plug-In . SVG Version: 6.00 Build 0)  -->
<svg version="1.1" id="Layer_1" xmlns="http://www.w3.org/2000/svg" xmlns:xlink="http://www.w3.org/1999/xlink" x="0px" y="0px"
	 viewBox="0 0 500 500" style="enable-background:new 0 0 500 500;" xml:space="preserve">
<style type="text/css">
	.st0{fill:#627B56;}
	.st1{fill:#E2C87F;}
</style>
<g>
	<path class="st0" d="M136.3,94.4v312.5V94.4z M136.3,406.9c97.1,17,191.6-58.7,190.3-156c2.3-98.4-95.8-172.2-190.3-156.4"/>
	<g>
		<g>
			<g>
				<g>
					<path class="st1" d="M154.7,409.3l-9.1-11.7c3-2.5,6.2-5,9.4-7.3l9,11.7C161.1,404.5,158,407,154.7,409.3z"/>
				</g>
			</g>
			<g>
				<g>
					<g>
						<path class="st1" d="M301.5,368.4c-14.1-1.9-31.5-1.3-45.9-1l15.2-15.2c10.8-0.3,21.6,0.2,32.4,1.5L301.5,368.4z"/>
					</g>
				</g>
				<g>
					<g>
						<g>
							<path class="st1" d="M371,390.2c-20.4-11.1-42.9-18.3-66.8-21.5l1.9-14.7c25.6,3.3,49.8,11.1,72,23.1L371,390.2z"/>
						</g>
					</g>
					<g>
						<g>
							<path class="st1" d="M146.3,416.3c-1.5-0.1-4.5-0.1-7.3-0.2c-2.5,0-4.5-2.3-4.2-4.8c6.6-62.3,42.7-112.8,96.7-139.7
								C224.4,331.1,198.2,379.1,146.3,416.3z M210.6,302.2c-29.1,21.7-49,52.8-57.4,89.9C183.1,366.4,201.4,337.8,210.6,302.2z"/>
						</g>
					</g>
					<g>
						<g>
							<path class="st1" d="M248.6,447.6c-41,0-82-13-115.2-34.3c0.2-2.3,1.8-4.4,2.2-6.6c1.6-1.5,3.8-3.6,5.5-5.1h0.1
								c40.3-36.3,95.2-50.7,149.3-48.6l0.9-0.1c37.8,2.3,73.4,13.8,104,34.1C358.3,424.8,304.2,447.9,248.6,447.6z M168,416.1
								c66.4,29.4,148.4,19.5,202.9-25.8c-28.2-15.3-61.3-23.4-94.4-23.2C248.2,394.7,209.7,411.9,168,416.1z M252.3,368.5
								c-31.9,3.9-62.3,15.4-87.3,33.1C197.5,398.5,227.9,387,252.3,368.5z"/>
						</g>
					</g>
				</g>
				<g>
					<g>
						<path class="st1" d="M159.4,403.7c-30-6.5,45.7-37.5,54.8-118.9c25.4-24.7,68.6-29.9,105.1-30.4c4.2,0,7.8,4.1,7.1,8.3
							c-5.3,41.6-21.2,76-47.3,102.1c-1.4,1.4-3.2,2.1-5.1,2.2C231.2,366.4,192.9,383.3,159.4,403.7z M228.2,290.8
							c-5.4,28.7-16.3,54.7-32.2,77c23.3-9.4,48.8-14.8,74.7-15.5c20.8-21.7,34.2-49.6,39.8-83.1
							C281.1,269.7,252.9,277.1,228.2,290.8z"/>
					</g>
				</g>
				<g>
					<g>
						<path class="st1" d="M142,418.1C2.1,348.6,29.1,101.6,182,64.5C315.1,14.2,462.3,128.4,448.3,268
							c-3.9,46.1-23.7,91.4-60,125.9c-7,6.6-16.7-3.2-10-10.1C510.1,251,390.6,16.2,186,78.8C39,121,28.6,331.5,140.5,401.2
							c13.8-13.6,25.9,4.2,8.4,12.2C147.9,416.1,145,418.1,142,418.1z"/>
					</g>
				</g>
				<g>
					<g>
						<path class="st1" d="M221.6,293.4c-4.6,0-8.2-4.3-7.3-8.8c14-70.8-20.5-154.2-76.8-186.1c-3.6-2-4.8-6.5-2.8-10.1
							c19.1-16.9,72.6,56.2,80.3,80.2C227.1,191.7,245,281.5,221.6,293.4z"/>
					</g>
				</g>
				<g>
					<g>
						<path class="st1" d="M159.7,403.5c-30-6.5,45.7-37.5,54.8-118.9c25.4-24.7,68.6-29.8,105.1-30.4c4.2,0,7.8,4.1,7.1,8.3
							c-5.3,41.6-21.2,76-47.3,102.1c-1.4,1.4-3.2,2.1-5.1,2.2C231.5,366.2,193.2,383.1,159.7,403.5z M228.5,290.5
							c-5.4,28.7-16.3,54.7-32.2,77c23.3-9.4,48.8-14.8,74.7-15.5c20.8-21.7,34.2-49.6,39.8-83.1
							C281.4,269.5,253.2,276.8,228.5,290.5z"/>
					</g>
				</g>
			</g>
		</g>
	</g>
</g>
</svg>
